<mxfile host="app.diagrams.net" agent="Mozilla/5.0 (Windows NT 10.0; Win64; x64) AppleWebKit/537.36 (KHTML, like Gecko) Chrome/138.0.0.0 Safari/537.36 Edg/138.0.0.0" version="28.0.4">
  <diagram name="Page-1" id="cqFNTiU6uErdtZ2TDNFi">
    <mxGraphModel dx="778" dy="430" grid="0" gridSize="10" guides="1" tooltips="1" connect="1" arrows="1" fold="1" page="0" pageScale="1" pageWidth="827" pageHeight="1169" math="0" shadow="0">
      <root>
        <mxCell id="0" />
        <mxCell id="1" parent="0" />
        <mxCell id="ZJ-lILAAd4j_UfSkXZZT-5" value="" style="whiteSpace=wrap;html=1;aspect=fixed;" vertex="1" parent="1">
          <mxGeometry x="675" y="105" width="128" height="128" as="geometry" />
        </mxCell>
        <mxCell id="MjwD6e0wirsRCNaimnq1-3" value="Serveur Web(Rsyslog)" style="shape=umlActor;verticalLabelPosition=bottom;verticalAlign=top;html=1;" parent="1" vertex="1">
          <mxGeometry x="722" y="114" width="30" height="59" as="geometry" />
        </mxCell>
        <mxCell id="MjwD6e0wirsRCNaimnq1-4" value="Administrateur&lt;div&gt;&lt;br&gt;&lt;/div&gt;" style="shape=umlActor;verticalLabelPosition=bottom;verticalAlign=top;html=1;" parent="1" vertex="1">
          <mxGeometry x="140" y="258" width="30" height="60" as="geometry" />
        </mxCell>
        <mxCell id="MjwD6e0wirsRCNaimnq1-6" value="&lt;br&gt;&lt;div&gt;&lt;br&gt;&lt;/div&gt;" style="html=1;whiteSpace=wrap;" parent="1" vertex="1">
          <mxGeometry x="228" y="72" width="407" height="368" as="geometry" />
        </mxCell>
        <mxCell id="MjwD6e0wirsRCNaimnq1-7" value="Serveur qui collecte les logs" style="html=1;whiteSpace=wrap;" parent="1" vertex="1">
          <mxGeometry x="340" y="72" width="165" height="29" as="geometry" />
        </mxCell>
        <mxCell id="MjwD6e0wirsRCNaimnq1-9" value="Envoyer les logs au collecteur" style="ellipse;whiteSpace=wrap;html=1;" parent="1" vertex="1">
          <mxGeometry x="471" y="165" width="151" height="32" as="geometry" />
        </mxCell>
        <mxCell id="MjwD6e0wirsRCNaimnq1-11" value="Analyser les logs reçus" style="ellipse;whiteSpace=wrap;html=1;" parent="1" vertex="1">
          <mxGeometry x="300" y="405" width="140" height="32" as="geometry" />
        </mxCell>
        <mxCell id="MjwD6e0wirsRCNaimnq1-30" value="Purger les anciens logs" style="ellipse;whiteSpace=wrap;html=1;" parent="1" vertex="1">
          <mxGeometry x="488" y="254" width="140" height="43" as="geometry" />
        </mxCell>
        <mxCell id="MjwD6e0wirsRCNaimnq1-57" style="edgeStyle=none;curved=1;rounded=0;orthogonalLoop=1;jettySize=auto;html=1;exitX=0.5;exitY=0.5;exitDx=0;exitDy=0;exitPerimeter=0;fontSize=12;startSize=8;endSize=8;" parent="1" source="MjwD6e0wirsRCNaimnq1-3" target="MjwD6e0wirsRCNaimnq1-9" edge="1">
          <mxGeometry relative="1" as="geometry" />
        </mxCell>
        <mxCell id="MjwD6e0wirsRCNaimnq1-116" value="" style="edgeStyle=none;curved=1;rounded=0;orthogonalLoop=1;jettySize=auto;html=1;fontSize=12;startSize=8;endSize=8;" parent="1" source="MjwD6e0wirsRCNaimnq1-72" target="MjwD6e0wirsRCNaimnq1-30" edge="1">
          <mxGeometry relative="1" as="geometry" />
        </mxCell>
        <mxCell id="MjwD6e0wirsRCNaimnq1-72" value="" style="html=1;whiteSpace=wrap;" parent="1" vertex="1">
          <mxGeometry x="718" y="340" width="68" height="88" as="geometry" />
        </mxCell>
        <mxCell id="MjwD6e0wirsRCNaimnq1-96" value="Script&amp;nbsp;" style="shape=umlActor;verticalLabelPosition=bottom;verticalAlign=top;html=1;" parent="1" vertex="1">
          <mxGeometry x="736" y="360.5" width="30" height="47" as="geometry" />
        </mxCell>
        <mxCell id="MjwD6e0wirsRCNaimnq1-104" value="Extends" style="endArrow=block;endSize=16;endFill=0;html=1;rounded=0;fontSize=12;curved=1;exitX=0.624;exitY=0.969;exitDx=0;exitDy=0;exitPerimeter=0;entryX=0.448;entryY=-0.062;entryDx=0;entryDy=0;entryPerimeter=0;" parent="1" source="ZJ-lILAAd4j_UfSkXZZT-6" target="MjwD6e0wirsRCNaimnq1-11" edge="1">
          <mxGeometry width="160" relative="1" as="geometry">
            <mxPoint x="392.67" y="321" as="sourcePoint" />
            <mxPoint x="352.0022221742585" y="400.75498875708" as="targetPoint" />
          </mxGeometry>
        </mxCell>
        <mxCell id="MjwD6e0wirsRCNaimnq1-111" value="" style="endArrow=block;dashed=1;endFill=0;endSize=12;html=1;rounded=0;fontSize=12;curved=1;entryX=0.067;entryY=0.798;entryDx=0;entryDy=0;entryPerimeter=0;exitX=1;exitY=0.5;exitDx=0;exitDy=0;" parent="1" source="ZJ-lILAAd4j_UfSkXZZT-6" target="MjwD6e0wirsRCNaimnq1-30" edge="1">
          <mxGeometry width="160" relative="1" as="geometry">
            <mxPoint x="424.73299999999995" y="313.34000000000003" as="sourcePoint" />
            <mxPoint x="534" y="245" as="targetPoint" />
          </mxGeometry>
        </mxCell>
        <mxCell id="ZJ-lILAAd4j_UfSkXZZT-18" value="Include" style="edgeLabel;html=1;align=center;verticalAlign=middle;resizable=0;points=[];" vertex="1" connectable="0" parent="MjwD6e0wirsRCNaimnq1-111">
          <mxGeometry x="0.028" y="-1" relative="1" as="geometry">
            <mxPoint y="-1" as="offset" />
          </mxGeometry>
        </mxCell>
        <mxCell id="ZJ-lILAAd4j_UfSkXZZT-6" value="Créer les comptes utilisateurs" style="ellipse;whiteSpace=wrap;html=1;" vertex="1" parent="1">
          <mxGeometry x="280" y="305" width="140" height="43" as="geometry" />
        </mxCell>
        <mxCell id="ZJ-lILAAd4j_UfSkXZZT-7" value="Envoyer une demande de logs" style="ellipse;whiteSpace=wrap;html=1;" vertex="1" parent="1">
          <mxGeometry x="240" y="131" width="154" height="50" as="geometry" />
        </mxCell>
        <mxCell id="ZJ-lILAAd4j_UfSkXZZT-10" value="" style="endArrow=open;endFill=1;endSize=12;html=1;rounded=0;exitX=0.5;exitY=0.5;exitDx=0;exitDy=0;exitPerimeter=0;entryX=0;entryY=0.5;entryDx=0;entryDy=0;" edge="1" parent="1" source="MjwD6e0wirsRCNaimnq1-4" target="ZJ-lILAAd4j_UfSkXZZT-15">
          <mxGeometry width="160" relative="1" as="geometry">
            <mxPoint x="96" y="149" as="sourcePoint" />
            <mxPoint x="256" y="149" as="targetPoint" />
          </mxGeometry>
        </mxCell>
        <mxCell id="ZJ-lILAAd4j_UfSkXZZT-11" value="Extends" style="endArrow=block;endSize=16;endFill=0;html=1;rounded=0;exitX=1;exitY=0.5;exitDx=0;exitDy=0;" edge="1" parent="1" source="ZJ-lILAAd4j_UfSkXZZT-7">
          <mxGeometry width="160" relative="1" as="geometry">
            <mxPoint x="395" y="235" as="sourcePoint" />
            <mxPoint x="471" y="179" as="targetPoint" />
          </mxGeometry>
        </mxCell>
        <mxCell id="ZJ-lILAAd4j_UfSkXZZT-14" value="" style="endArrow=open;endFill=1;endSize=12;html=1;rounded=0;exitX=0.5;exitY=0.5;exitDx=0;exitDy=0;exitPerimeter=0;entryX=0.007;entryY=0.535;entryDx=0;entryDy=0;entryPerimeter=0;" edge="1" parent="1" source="MjwD6e0wirsRCNaimnq1-4" target="ZJ-lILAAd4j_UfSkXZZT-6">
          <mxGeometry width="160" relative="1" as="geometry">
            <mxPoint x="135" y="305" as="sourcePoint" />
            <mxPoint x="295" y="305" as="targetPoint" />
          </mxGeometry>
        </mxCell>
        <mxCell id="ZJ-lILAAd4j_UfSkXZZT-15" value="S&#39;authentifier" style="ellipse;whiteSpace=wrap;html=1;" vertex="1" parent="1">
          <mxGeometry x="276" y="229" width="140" height="39" as="geometry" />
        </mxCell>
        <mxCell id="ZJ-lILAAd4j_UfSkXZZT-16" value="Include" style="endArrow=open;endSize=12;dashed=1;html=1;rounded=0;entryX=0.649;entryY=1.053;entryDx=0;entryDy=0;entryPerimeter=0;" edge="1" parent="1" target="ZJ-lILAAd4j_UfSkXZZT-7">
          <mxGeometry width="160" relative="1" as="geometry">
            <mxPoint x="371" y="225" as="sourcePoint" />
            <mxPoint x="555" y="252" as="targetPoint" />
          </mxGeometry>
        </mxCell>
        <mxCell id="ZJ-lILAAd4j_UfSkXZZT-17" value="Include" style="endArrow=open;endSize=12;dashed=1;html=1;rounded=0;entryX=0.5;entryY=0;entryDx=0;entryDy=0;exitX=0.5;exitY=1;exitDx=0;exitDy=0;" edge="1" parent="1" source="ZJ-lILAAd4j_UfSkXZZT-15" target="ZJ-lILAAd4j_UfSkXZZT-6">
          <mxGeometry width="160" relative="1" as="geometry">
            <mxPoint x="370" y="301" as="sourcePoint" />
            <mxPoint x="555" y="252" as="targetPoint" />
          </mxGeometry>
        </mxCell>
      </root>
    </mxGraphModel>
  </diagram>
</mxfile>
